<svg id="Graphic_element" data-name="Graphic element" xmlns="http://www.w3.org/2000/svg" viewBox="0 0 1200 675"><path d="M1133,316s-5-26.63-39.43.15C1093.57,316.14,1126,343.2,1133,316Zm-7.91.15a1.31,1.31,0,1,1-1.31-1.27A1.29,1.29,0,0,1,1125.09,316.14Zm-23,.05s2.21-8,18-.07C1120.09,316.12,1105.38,324.35,1102.1,316.19Z" style="fill:#ce9c6b"/><path d="M1091,319.8a3.57,3.57,0,0,1-3.63-3.51h0a3.58,3.58,0,0,1,3.61-3.55h0a3.58,3.58,0,0,1,3.63,3.52h0a3.57,3.57,0,0,1-3.61,3.54Z" style="fill:#ce9c6b"/><path d="M1063.18,319.91a3.58,3.58,0,0,1-3.63-3.52h0a3.57,3.57,0,0,1,3.61-3.54h0a3.57,3.57,0,0,1,3.63,3.52h0a3.57,3.57,0,0,1-3.61,3.54Z" style="fill:#ce9c6b"/><path d="M1077.09,325.67s12.4-9.34,12.29-9.39c.11,0-12.37-9.3-12.37-9.3-1.44,3.06-12.36,9.38-12.34,9.39C1064.49,316.47,1075.62,322.63,1077.09,325.67Z" style="fill:#ce9c6b"/><path d="M753.74,316.22c-22.4-17.44-25.68-.1-25.68-.1C732.63,333.85,753.74,316.22,753.74,316.22Zm-19.67-.83a.84.84,0,1,1-.86.83A.85.85,0,0,1,734.07,315.39Zm2.4.82c10.27-5.17,11.72.05,11.72.05C746.05,321.57,736.47,316.21,736.47,316.21Z" style="fill:#ce9c6b"/><path d="M755.4,318.61a2.34,2.34,0,0,0,2.37-2.29h0a2.34,2.34,0,0,0-2.35-2.31h0a2.33,2.33,0,0,0-2.37,2.29h0a2.33,2.33,0,0,0,2.35,2.31Z" style="fill:#ce9c6b"/><rect x="757.77" y="315.13" width="305.4" height="2.5" style="fill:#ce9c6b"/><path d="M588.52,436.53l-.73-.41a6.31,6.31,0,0,1-.86-.57,9.68,9.68,0,0,1-1.08-.91,11,11,0,0,1-2.21-3.19,16.43,16.43,0,0,1-1.34-5.09A38.07,38.07,0,0,1,584,412a53.72,53.72,0,0,1,3.23-8.46,35.67,35.67,0,0,1,2.41-4.27l2.94-4.44a177.34,177.34,0,0,1,14-19,81.21,81.21,0,0,1,9.29-9.14,63.08,63.08,0,0,1,5.44-4,51.3,51.3,0,0,1,6.05-3.34A41.27,41.27,0,0,1,634,357c1.14-.33,2.32-.54,3.49-.78s2.36-.36,3.62-.44a54.93,54.93,0,0,1,15,.41,31.9,31.9,0,0,1,7.17,2.07,20.17,20.17,0,0,1,6.12,3.85,12.66,12.66,0,0,1,3.66,5.66,9.14,9.14,0,0,1-.5,6.38,4.83,4.83,0,0,1-.52,1c-.21.32-.39.66-.62,1a13.81,13.81,0,0,1-1.6,1.74,17.87,17.87,0,0,1-4,2.78,30.51,30.51,0,0,1-9.88,2.72,59.05,59.05,0,0,1-10.47,0,46.66,46.66,0,0,1-9.9-2.19A115.22,115.22,0,0,1,617.21,373c-5.74-3.12-11.16-6.39-16.31-9.62-10.29-6.47-19.54-12.72-27.76-18.14s-15.4-10.08-21.34-13.73c-5.72-4-12.81-8.75-21.42-13.69a151,151,0,0,0-14.19-7.2A74,74,0,0,0,499,305.29a40.06,40.06,0,0,0-9.85-.51A29.52,29.52,0,0,0,479,307.36c-.82.35-1.59.83-2.39,1.25s-1.51,1-2.26,1.49-1.42,1.1-2.13,1.73a14.1,14.1,0,0,0-2,2.21,11.34,11.34,0,0,0-2.17,5.76,13.85,13.85,0,0,0,.93,6,25.75,25.75,0,0,0,6.75,9.33,35.82,35.82,0,0,0,9.69,6.36,47.72,47.72,0,0,0,5.46,2.17c.93.31,1.89.53,2.83.8l1.43.39c.48.12,1,.19,1.44.29l2.91.57,2.92.4,1.47.19,1.48.11,3,.23c11.64.54,22.83-.91,33.41-2.73,2.65-.45,5.26-.95,7.84-1.46l2-.39c.69-.14,1.36-.31,2-.48,1.32-.37,2.6-.76,3.84-1.19,5-1.73,9.59-3.77,14.07-5.78,8.93-4.06,17.25-8.14,25.1-11.8s15.2-6.95,22-9.65a147.19,147.19,0,0,1,18.81-6.21,53.5,53.5,0,0,1,14.79-1.79,20.94,20.94,0,0,1,9.08,2.24,10.87,10.87,0,0,1,1.23.72,8.79,8.79,0,0,1,.84.59l.66.52-.63-.56a7.09,7.09,0,0,0-.8-.65,12.75,12.75,0,0,0-1.19-.81,21.27,21.27,0,0,0-9.13-2.82,53.49,53.49,0,0,0-15.2,1,138.84,138.84,0,0,0-19.36,5.43c-7,2.44-14.58,5.47-22.59,8.89s-16.47,7.25-25.4,11.06c-4.47,1.89-9.08,3.8-13.81,5.34-1.18.39-2.37.73-3.55,1-.59.15-1.18.29-1.77.4l-1.9.34q-3.84.7-7.76,1.34c-10.43,1.65-21.32,3-32.33,2.45l-2.78-.21-1.39-.11-1.37-.18-2.72-.35-2.68-.52c-.44-.09-.89-.15-1.32-.26l-1.3-.35c-.86-.24-1.74-.43-2.58-.71a42.33,42.33,0,0,1-4.89-1.9,31.39,31.39,0,0,1-8.52-5.45,21.4,21.4,0,0,1-5.67-7.49,9.18,9.18,0,0,1-.73-4,6.93,6.93,0,0,1,1.28-3.62,9.8,9.8,0,0,1,1.35-1.56c.54-.49,1.17-1,1.74-1.48s1.25-.89,1.88-1.3,1.3-.79,2-1.1c5.44-2.7,11.72-3,17.54-2.21A72.93,72.93,0,0,1,515,313.42a155.91,155.91,0,0,1,14.2,6.51c8.72,4.52,16,8.95,21.94,12.59,5.71,4,12.63,8.92,20.59,14.69s17,12.36,27.13,19.2c5.09,3.41,10.48,6.88,16.26,10.2a114,114,0,0,0,18.86,8.9,50.5,50.5,0,0,0,10.94,2.57,61.17,61.17,0,0,0,11.49.08A35.18,35.18,0,0,0,668,385a23.13,23.13,0,0,0,5.24-3.59,18.81,18.81,0,0,0,2.21-2.41c.32-.45.61-.93.91-1.4a9.53,9.53,0,0,0,.77-1.49,13.9,13.9,0,0,0,.72-9.66,17.45,17.45,0,0,0-5.07-7.9,25.14,25.14,0,0,0-7.61-4.73,37.29,37.29,0,0,0-8.29-2.31,58.91,58.91,0,0,0-16.33-.2c-1.3.1-2.64.34-4,.56s-2.61.56-3.88.95a44.94,44.94,0,0,0-7.26,2.81,54.18,54.18,0,0,0-6.48,3.79,65.59,65.59,0,0,0-5.7,4.45,83.08,83.08,0,0,0-9.4,9.84,170.65,170.65,0,0,0-13.52,19.85c-.93,1.56-1.85,3.08-2.74,4.56a37.86,37.86,0,0,0-2.34,4.62,55.7,55.7,0,0,0-2.9,8.9,38.32,38.32,0,0,0-.88,14.82,17,17,0,0,0,1.7,5.18,11.44,11.44,0,0,0,2.48,3.15,8.87,8.87,0,0,0,1.16.85,7.11,7.11,0,0,0,.9.52Z" style="fill:#ce9c6b"/><path d="M588.61,436.53l.76-.36a6.52,6.52,0,0,0,.91-.52,8.83,8.83,0,0,0,1.15-.85,11.26,11.26,0,0,0,2.48-3.15,17,17,0,0,0,1.71-5.18,38.54,38.54,0,0,0-.89-14.82,54.63,54.63,0,0,0-2.89-8.9,38,38,0,0,0-2.35-4.62l-2.73-4.56a169.56,169.56,0,0,0-13.53-19.85,83.79,83.79,0,0,0-9.39-9.84,67.14,67.14,0,0,0-5.7-4.45,55.12,55.12,0,0,0-6.49-3.79,44.58,44.58,0,0,0-7.26-2.81c-1.26-.39-2.56-.66-3.87-.95s-2.66-.46-4-.56a58.84,58.84,0,0,0-16.32.2,37.14,37.14,0,0,0-8.29,2.31,25,25,0,0,0-7.61,4.73,17.47,17.47,0,0,0-5.08,7.9,13.91,13.91,0,0,0,.73,9.66,8.08,8.08,0,0,0,.77,1.49c.3.47.58.95.91,1.4a18.11,18.11,0,0,0,2.21,2.41,22.69,22.69,0,0,0,5.24,3.59,35.19,35.19,0,0,0,11.63,3.15,61.15,61.15,0,0,0,11.49-.08,50.59,50.59,0,0,0,10.95-2.57,114.71,114.71,0,0,0,18.86-8.9c5.78-3.32,11.17-6.79,16.25-10.2,10.17-6.84,19.16-13.43,27.14-19.2s14.88-10.74,20.59-14.69c5.92-3.64,13.22-8.07,21.94-12.59a155.91,155.91,0,0,1,14.2-6.51,72.7,72.7,0,0,1,16.51-4.56c5.83-.81,12.11-.49,17.54,2.21.7.31,1.32.74,2,1.1s1.25.87,1.88,1.3,1.21,1,1.74,1.48a9.32,9.32,0,0,1,1.35,1.56,7,7,0,0,1,1.29,3.62,9.48,9.48,0,0,1-.73,4,21.52,21.52,0,0,1-5.67,7.49,31.55,31.55,0,0,1-8.52,5.45,41.79,41.79,0,0,1-4.9,1.9c-.84.28-1.71.47-2.57.71l-1.3.35c-.44.11-.89.17-1.33.26l-2.67.52-2.73.35-1.37.18-1.38.11-2.79.21c-11,.51-21.89-.8-32.32-2.45q-3.91-.63-7.77-1.34l-1.89-.34c-.59-.11-1.18-.25-1.77-.4-1.19-.3-2.38-.64-3.56-1-4.73-1.54-9.33-3.45-13.8-5.34C598.45,327,590,323.15,582,319.74s-15.55-6.45-22.58-8.89A138.57,138.57,0,0,0,540,305.42a53.45,53.45,0,0,0-15.2-1,21.32,21.32,0,0,0-9.13,2.82,11.3,11.3,0,0,0-1.18.81,7.33,7.33,0,0,0-.81.65l-.62.56.66-.52a8.79,8.79,0,0,1,.84-.59,10.66,10.66,0,0,1,1.22-.72,21,21,0,0,1,9.08-2.24,53.42,53.42,0,0,1,14.79,1.79,146.68,146.68,0,0,1,18.81,6.21c6.84,2.7,14.2,6,22,9.65s16.16,7.74,25.09,11.8c4.48,2,9.09,4,14.07,5.78,1.24.43,2.53.82,3.84,1.19.66.17,1.33.34,2,.48l1.94.39c2.58.51,5.19,1,7.84,1.46,10.59,1.82,21.77,3.27,33.42,2.73l3-.23,1.47-.11,1.47-.19,2.93-.4,2.9-.57c.48-.1,1-.17,1.45-.29l1.42-.39c1-.27,1.9-.49,2.83-.8a47.87,47.87,0,0,0,5.47-2.17,36.13,36.13,0,0,0,9.69-6.36,25.73,25.73,0,0,0,6.74-9.33,13.56,13.56,0,0,0,.93-6,11.34,11.34,0,0,0-2.17-5.76,13.17,13.17,0,0,0-2-2.21c-.71-.63-1.42-1.15-2.12-1.73s-1.5-1-2.27-1.49-1.56-.9-2.39-1.25A29.52,29.52,0,0,0,688,304.78a40.06,40.06,0,0,0-9.85.51A73.83,73.83,0,0,0,661,310.64a151,151,0,0,0-14.19,7.2c-8.61,4.94-15.7,9.73-21.43,13.69-5.93,3.65-13.11,8.29-21.33,13.73s-17.47,11.67-27.77,18.14c-5.15,3.23-10.57,6.5-16.3,9.62a115.33,115.33,0,0,1-18.28,8.18,46.39,46.39,0,0,1-9.9,2.19,58.94,58.94,0,0,1-10.46,0,30.5,30.5,0,0,1-9.89-2.72,18,18,0,0,1-4-2.78,13.1,13.1,0,0,1-1.6-1.74c-.23-.31-.41-.65-.62-1a4.43,4.43,0,0,1-.53-1,9.14,9.14,0,0,1-.49-6.38,12.73,12.73,0,0,1,3.65-5.66,20.3,20.3,0,0,1,6.12-3.85,31.84,31.84,0,0,1,7.18-2.07,54.93,54.93,0,0,1,15-.41c1.25.08,2.43.27,3.62.44s2.34.45,3.48.78a41.38,41.38,0,0,1,6.62,2.39,51.16,51.16,0,0,1,6,3.34,64.83,64.83,0,0,1,5.45,4,82,82,0,0,1,9.29,9.14,177.34,177.34,0,0,1,14,19l2.94,4.44a35.67,35.67,0,0,1,2.41,4.27,54.72,54.72,0,0,1,3.23,8.46,38.28,38.28,0,0,1,1.66,14.33,16.7,16.7,0,0,1-1.35,5.09,11,11,0,0,1-2.21,3.19,8.16,8.16,0,0,1-1.08.91,6.29,6.29,0,0,1-.85.57Z" style="fill:#ce9c6b"/><path d="M589.25,435.29c-15.66,18.21-.57,21.25-.57,21.25C604.25,453.1,589.25,435.29,589.25,435.29Zm-1.09,16.27a.73.73,0,1,1,.7.72A.71.71,0,0,1,588.16,451.56Zm.76-2c-4.33-8.6.26-9.7.26-9.7C593.78,441.76,588.92,449.59,588.92,449.59Z" style="fill:#ce9c6b"/><path d="M591.36,434a2,2,0,0,0-2-2h0a2,2,0,0,0-2.06,1.9h0a2,2,0,0,0,2,2h0a2,2,0,0,0,2.05-1.91Z" style="fill:#ce9c6b"/><path d="M81.89,316.14C47.5,289.36,42.46,316,42.46,316,49.47,343.2,81.89,316.14,81.89,316.14Zm-30.21-1.27a1.28,1.28,0,1,1-1.31,1.27A1.29,1.29,0,0,1,51.68,314.87Zm3.69,1.25c15.78-7.94,18,.07,18,.07C70.08,324.35,55.37,316.12,55.37,316.12Z" style="fill:#ce9c6b"/><path d="M84.44,319.8a3.57,3.57,0,0,0,3.63-3.51h0a3.58,3.58,0,0,0-3.61-3.55h0a3.58,3.58,0,0,0-3.63,3.52h0a3.57,3.57,0,0,0,3.61,3.54Z" style="fill:#ce9c6b"/><path d="M112.27,319.91a3.58,3.58,0,0,0,3.64-3.52h0a3.57,3.57,0,0,0-3.61-3.54h0a3.57,3.57,0,0,0-3.63,3.52h0a3.57,3.57,0,0,0,3.6,3.54Z" style="fill:#ce9c6b"/><path d="M98.37,325.67s-12.4-9.34-12.29-9.39c-.11,0,12.37-9.3,12.37-9.3,1.44,3.06,12.36,9.38,12.34,9.39C111,316.47,99.84,322.63,98.37,325.67Z" style="fill:#ce9c6b"/><path d="M447.4,316.12s-3.28-17.34-25.68.1C421.72,316.22,442.83,333.85,447.4,316.12Zm-5.15.1a.86.86,0,1,1-.86-.83A.85.85,0,0,1,442.25,316.22Zm-15,0s1.45-5.22,11.72-.05C439,316.21,429.41,321.57,427.27,316.26Z" style="fill:#ce9c6b"/><path d="M420.06,318.61a2.34,2.34,0,0,1-2.37-2.29h0A2.34,2.34,0,0,1,420,314h0a2.33,2.33,0,0,1,2.37,2.29h0a2.33,2.33,0,0,1-2.35,2.31Z" style="fill:#ce9c6b"/><rect x="112.29" y="315.13" width="305.4" height="2.5" style="fill:#ce9c6b"/></svg>