<svg xmlns="http://www.w3.org/2000/svg" xmlns:xlink="http://www.w3.org/1999/xlink" version="1.1" x="0px" y="0px" viewBox="0 0 100 125" enable-background="new 0 0 100 100" xml:space="preserve"><path d="M78.926,50.111c-0.484-1.376-0.363-2.292-0.258-3.1c0.105-0.797,0.204-1.549-0.325-2.412  c-0.135-0.221-0.288-0.417-0.45-0.594c-0.057-2.085-0.175-7.48,0.024-10.005c0.25-3.167-1.248-9.833-2.166-12.833  s1.749-9.5-5.751-11.5C70,9.667,46.5-6,32.833,12s-8.167,18.833-8.5,22c-0.273,2.597,0.706,7.106,1.067,8.646  c-0.874-0.115-1.832,0.479-2.463,1.51c-0.529,0.863-0.43,1.616-0.325,2.413c0.106,0.808,0.228,1.724-0.256,3.1  c-0.908,2.582,0.053,4.504,0.981,6.363c0.168,0.335,0.336,0.671,0.492,1.011c0.414,0.899,0.659,1.334,0.838,1.651  c0.243,0.432,0.334,0.594,0.591,1.522c0.336,1.219,1.468,1.571,2.438,1.593c0.057,0.829,0.117,1.657,0.179,2.467  c0,3.412,0,7.008,0,8.1c0,2.25,1.375,5.625,3.25,8.125s4.75,3.125,7.25,6.25s3.75,4.875,4.625,6.375s3.75,1.125,3.75,1.125  l-0.375,1.375L49,95.5l-0.5,1.25c0,0,2.25-0.375,3.059-0.625s-0.829,1.625-0.829,1.625l2.646-1.5c0,0,2.625,1.25,4.25,0  s7.25-5.375,8.25-9.375s1.5-2,2.25-4s2.625-4.5,4.589-6.875s0.036-6.375,0.549-8.875c0.171-0.834,0.228-2.723,0.228-4.867  c0.988-0.001,2.185-0.339,2.533-1.598c0.256-0.929,0.347-1.09,0.59-1.521c0.18-0.317,0.425-0.752,0.838-1.652  c0.156-0.339,0.323-0.674,0.491-1.009C78.872,54.618,79.833,52.695,78.926,50.111z M30.567,38.667c3.1-0.833,3.433-3.833,4.1-5.833  s1.5-3,5.333-3.833s9.833-4,10-5.667s4.166-3.167,7.333-2.667s3.143,2.153,3,5.333c-0.03,0.673,1.417,3.583,1.417,3.583  s-1.416-4.417,0.417-5.75s1.832,3.167,2.666,4S67,32.072,67,32.072s-0.5-2.905,0-4.405s1.499,0.5,2.333,1.833S70,35.5,71,36.167  s-1.167-1,0-2.167s1.833,4.998,1.714,6.167c-0.063,0.627,0.135,3.408,0.333,5.854c-0.021,0.559-0.046,1.156-0.072,1.791  c-0.009,0.015-0.022,0.037-0.023,0.038l0.021,0.014c-0.063,1.534-0.142,3.259-0.23,5.073c-0.448,0.265-1.066,0.712-1.367,1.313  c-0.5,1-1.625,2.875-3.125,4.888s-2.5,1.487-2.875,2.362s-1.25,0.125-2,1.247s-0.375,1.628-1.75,0.847s-2.25,0.531-3.125-0.719  s-5.875-2-8.5-2.121s-6.375,1.996-8.625,2.621s-6.625,1-7.75-2.065S29.5,56.125,29.5,56.125c0.18-0.72-0.736-1.756-1.266-2.284  c-0.226-4.431-0.383-8.462-0.445-10.575l0.045-0.135C27.833,43.13,27.467,39.5,30.567,38.667z M26.222,59.95  c-0.278-1.008-0.403-1.25-0.684-1.747c-0.17-0.303-0.404-0.717-0.801-1.579c-0.161-0.35-0.333-0.695-0.506-1.04  c-0.874-1.749-1.7-3.402-0.933-5.584c0.563-1.602,0.42-2.689,0.305-3.563c-0.095-0.722-0.158-1.198,0.186-1.759  c0.416-0.677,1.03-1.104,1.492-1.041c0.419,0.059,0.636,0.53,0.744,0.915c0.384,1.374,0.69,2.025,0.862,2.321  c0.076,1.759,0.19,4.065,0.346,7.103c0.096,1.873,0.231,4.318,0.396,6.828C27.07,60.783,26.406,60.616,26.222,59.95z M77.048,56.031  c-0.172,0.344-0.345,0.688-0.505,1.037c-0.396,0.863-0.63,1.277-0.801,1.58c-0.28,0.497-0.405,0.739-0.684,1.746  c-0.2,0.727-0.987,0.861-1.572,0.857c-0.007-0.912-0.021-1.845-0.041-2.747c0.101-1.67,0.186-3.237,0.252-4.529  c0.123-2.403,0.22-4.34,0.293-5.92c0.297-0.524,0.865-1.631,1.266-3.06c0.107-0.385,0.324-0.856,0.744-0.915  c0.458-0.063,1.075,0.364,1.491,1.041c0.344,0.561,0.28,1.038,0.186,1.759c-0.115,0.874-0.258,1.96,0.306,3.562  C78.749,52.627,77.923,54.28,77.048,56.031z"/><text x="0" y="115" fill="#000000" font-size="5px" font-weight="bold" font-family="'Helvetica Neue', Helvetica, Arial-Unicode, Arial, Sans-serif">Created by Gabriel Ciccariello</text><text x="0" y="120" fill="#000000" font-size="5px" font-weight="bold" font-family="'Helvetica Neue', Helvetica, Arial-Unicode, Arial, Sans-serif">from the Noun Project</text></svg>