<svg xmlns="http://www.w3.org/2000/svg" xmlns:xlink="http://www.w3.org/1999/xlink" version="1.1" x="0px" y="0px" viewBox="0 0 100 125" style="enable-background:new 0 0 100 100;" xml:space="preserve"><path d="M83,44.6c0,0,5.7,15.3,2.8,26.6c0,0,6.5-10,7.7-20.7l2-0.2c0,0,0.6-32.9-29.8-39.6L67.9,9c0,0-9.8-4.4-25.1-0.6  c0,0,1.4-2.1,4.3-1.7c0,0-6.2-5.8-18.4,5.5c0,0-2.3,0.1-3.1-1.5c0,0-2.4,4.3-0.4,6.9c0,0-0.3-1.9-5.4-0.7c0,0,2.3,1.6,2.9,2.7  c0,0-14.7-0.5-18.1,18.6h2c0,0-0.6,22.8,10.8,34.4c0,0-4-25.4,8.8-35.7c0,0,9.9,11.6,21.3,11.1c0,0-5.1-3.1-6.2-5.1  c0,0,14.2,2.6,28.1-3.9c0,0,6.4-3.1,11.3,5.7H83z"/><path d="M77.8,81c0,0-2.2,7.1-10.1,2.2c0,0-9.2-9.6-16.4-1.2C44.1,73.6,35,83.2,35,83.2C27.1,88.1,24.9,81,24.9,81  c-1.9,5.6,4,7.8,4,7.8c15,4.9,21.6-0.3,22.4-1c0.6,0.6,7.4,5.9,22.5,1C73.8,88.8,79.7,86.6,77.8,81z"/><text x="0" y="115" fill="#000000" font-size="5px" font-weight="bold" font-family="'Helvetica Neue', Helvetica, Arial-Unicode, Arial, Sans-serif">Created by Alex Hainsworth</text><text x="0" y="120" fill="#000000" font-size="5px" font-weight="bold" font-family="'Helvetica Neue', Helvetica, Arial-Unicode, Arial, Sans-serif">from the Noun Project</text></svg>