<svg xmlns="http://www.w3.org/2000/svg" width="32" height="32" id="salon"><g stroke="#373449" stroke-linecap="round" stroke-linejoin="round"><path fill="#ff7a6c" d="M7.167.5c-.329 0-.688.015-1.03.062l1.515 10.906c.01 0 .828 6.032.828 6.032v4h17.5s.035-4-3.5-4h-12l-.906-6.625c1.681-.787 2.732-2.192 2.531-3.657l-.5-3.78C11.368 1.714 9.475.518 7.167.5z"></path><path fill="#cad1d8" d="m22.98 21.5 2 7h4.511c.371 0 .958.254.958 1s-.587 1-.958 1H23.48l-2.5-9zm-12.5 0v4h9v-4h-2v2h-5v-2h-2zM13.98 25.5h2v4h-2z"></path><path fill="#cad1d8" d="M10.98 29.5h8c2.758.07 2.5 1.5 2.5 2h-13c0-.5-.357-2 2.5-2zm11.5-10.226V15.15c0-1.768-1.159-3.5-3.5-3.5h-16c-.471 0-1 .352-1 1s.529 1 1 1h15c2.41 0 2.5 1.295 2.5 2.5v3.125h0z"></path></g></svg>