<?xml version="1.0" encoding="utf-8"?>
<!-- Svg Vector Icons : http://www.onlinewebfonts.com/icon -->
<!DOCTYPE svg PUBLIC "-//W3C//DTD SVG 1.1//EN" "http://www.w3.org/Graphics/SVG/1.1/DTD/svg11.dtd">
<svg version="1.1" xmlns="http://www.w3.org/2000/svg" xmlns:xlink="http://www.w3.org/1999/xlink" x="0px" y="0px" viewBox="0 0 256 256" enable-background="new 0 0 256 256" xml:space="preserve">
<metadata> Svg Vector Icons : http://www.onlinewebfonts.com/icon </metadata>
<g><g><g><g><path class="Svggg" fill="#ce9c6b" d="M114.2,101l-55.5,8.6c-0.8-0.7-1.7-1.5-2.6-2.1c-10.3-7-25.3-5-35.6,4.6c-5.8,5.4-9.4,12.3-10.2,19.6c-0.9,7.6,1.3,14.6,6.1,19.8c1.2,1.3,2.5,2.4,4,3.4c0,0,0,0,0,0c7.9,5.3,18.5,5.4,27.7,0.8c0.4,0.5,0.8,0.9,1.4,1.3c3,2.1,7.2,1.3,9.2-1.8c1.6-2.4,1.4-5.4-0.1-7.6c4.3-4.9,7-10.9,7.7-17.1c0.5-3.9,0.1-7.6-1-11.1l54.5-4.4L114.2,101z M58.3,129.7c-0.6,5.4-3.4,10.7-7.8,14.7c-7.7,7.1-18.5,8.8-25.8,3.9c-0.9-0.6-1.8-1.4-2.6-2.2c-3.2-3.5-4.6-8.2-4-13.4c0.6-5.4,3.4-10.7,7.8-14.7c7.7-7.2,18.5-8.8,25.8-3.9c0.9,0.6,1.8,1.4,2.6,2.2C57.4,119.7,58.9,124.5,58.3,129.7z"/><path class="Svggg" fill="#ce9c6b" d="M147.7 112.9L242.3 52 246 45.5 177.7 76.7 147.1 113 z"/><path class="Svggg" fill="#ce9c6b" d="M86.7,217c3.6-0.7,7.2-2,10.5-3.9c12.3-7,18.6-20.8,15.1-32.6c-0.3-1.1-0.7-2.1-1.2-3.1l30.2-64.3l84.1-99.4l-8.9,5.2L120,102.6l5.2,13.5l-24.2,50.6c-2.4-1.3-5-2.2-7.8-2.8c-7.2-1.4-15,0-21.8,3.9c-12.3,7-18.6,20.7-15.1,32.6c0.5,1.7,1.2,3.3,2.1,4.8c2,3.4,4.7,6.2,8.1,8.3c6.6,8.2,1,20.4,0.8,23.3c-0.2,3,5.2,6.6,6.4,5.2C74.7,240.7,77.2,220.4,86.7,217z M131.1,108.3c-1.6-1.7-1.5-4.3,0.1-5.9c1.7-1.6,4.3-1.5,5.9,0.1c1.6,1.7,1.5,4.3-0.1,5.9C135.3,110,132.6,110,131.1,108.3z M93.2,206.2c-5.2,2.9-11,4-16.4,3c-5.2-1-9.3-3.8-11.6-7.9c-0.6-1-1-2.1-1.3-3.2c-2.5-8.4,2.3-18.2,11.4-23.4c5.2-3,11-4,16.4-3c5.2,1,9.3,3.8,11.6,7.9c0.6,1,1,2.1,1.3,3.2C107.1,191.2,102.3,201,93.2,206.2z"/></g></g><g></g><g></g><g></g><g></g><g></g><g></g><g></g><g></g><g></g><g></g><g></g><g></g><g></g><g></g><g></g></g></g>
</svg>